# xmcd
#
# Track frame offsets:
# 150
# 31766
# 53222
# 91814
# 124981
# 130101
# 145333
# 172532
# 215924
# 218164
# 220596
# 236691
# 255778
# 274193
# 290816
# 341567
#
# Disc length: 4735 seconds
#
# Revision: 0
# Processed by: cddbd v1.5.1PL0 Copyright (c) Steve Scherf et al.
# Submitted via: Axialis_AX_CDPlayer 2.6
#
DISCID=ef127d10
DTITLE=Colonel Headley and the House Puppets - Greentrail Estate
DYEAR=1900
DGENRE=
TTITLE0=Improv Jam 1
TTITLE1=Buddha
TTITLE2=Hendrix Fire - Strawberry Jam
TTITLE3=Beneath the Stage
TTITLE4=HxC
TTITLE5=Flounder Talks
TTITLE6=Liz
TTITLE7=Locked Myself Out
TTITLE8=Metallica, HA!
TTITLE9=Como
TTITLE10=Open Jam
TTITLE11=Phantasma
TTITLE12=Strawberry Sauce: The Essence of Groove
TTITLE13=Back to the Barn
TTITLE14=Spitting into the Wind
TTITLE15=Taxi Ride
EXTD=The Electric Shoe presents: Colonel Headley and The House Puppets Featu
EXTD=ring: \nThe Walker Texas Ranger Killer Death Band with Hootie Sandwich 
EXTD=& Special \nAppearance by: Free Lager Now!                             
EXTD= \n                                                          
EXTD=Walker \nTexas Ranger joined the Killer Death Band at a young ag
EXTD=e. He can unlock \nmysterious hidden doors with his 88 magical keys of 
EXTD=illustrious renown. \n\nHis accomplice flew a midst a flock of birds wi
EXTD=th his friends Quinto, \nConga, and Tumbadora all the way from Sri Lank
EXTD=a to be here tonight.\nHootie Sandwich evolved from a rare strand of im
EXTD=maculate, fire breathing \nmushrooms and spread his spores all over his
EXTD=bass. \nHis name rhymes with Soul and that is what he adds to the tune
EXTD='s funky \nGroove Juice. Also, he associates himself with the comedic h
EXTD=omeless.\nWhen this kid isn't floundering around, he likes to experimen
EXTD=t with the \nWeapons of Mass Percussion. Free Lager Now!\nShe likes to 
EXTD=chase Hobbits and spends most of her time drifting on sea \nwaves, maki
EXTD=ng sweet love with octopuses.\nThen there is he who lives with Smacky t
EXTD=he Frog and his frog friends. \nThey reside in a mayonnaise jar with a 
EXTD=stick and a leaf to recreate what \nthey're used to. They are usually f
EXTD=lying through space in their 16 ounce \nworld, but came down to Earth t
EXTD=o play some grooves for you all tonight.\n
EXTT0=
EXTT1=
EXTT2=
EXTT3=
EXTT4=
EXTT5=
EXTT6=
EXTT7=
EXTT8=
EXTT9=
EXTT10=
EXTT11=
EXTT12=
EXTT13=
EXTT14=
EXTT15=
PLAYORDER=
